<mxfile host="app.diagrams.net" modified="2020-12-10T04:25:42.176Z" agent="5.0 (Macintosh)" etag="HlqwUBbKTE2U6moZFy7B" version="14.0.0" type="github">
  <diagram id="YY3CwF2ktqizg8bDvBnR" name="Page-1">
    <mxGraphModel dx="1426" dy="831" grid="1" gridSize="10" guides="1" tooltips="1" connect="1" arrows="1" fold="1" page="1" pageScale="1" pageWidth="850" pageHeight="1100" math="0" shadow="0">
      <root>
        <mxCell id="0" />
        <mxCell id="1" parent="0" />
        <mxCell id="FhDucrxAOXkQIxxJNO1--1" value="Card" style="swimlane;fontStyle=0;childLayout=stackLayout;horizontal=1;startSize=26;fillColor=none;horizontalStack=0;resizeParent=1;resizeParentMax=0;resizeLast=0;collapsible=1;marginBottom=0;" vertex="1" parent="1">
          <mxGeometry x="590" y="710" width="140" height="78" as="geometry" />
        </mxCell>
        <mxCell id="FhDucrxAOXkQIxxJNO1--2" value="Suite" style="text;strokeColor=none;fillColor=none;align=left;verticalAlign=top;spacingLeft=4;spacingRight=4;overflow=hidden;rotatable=0;points=[[0,0.5],[1,0.5]];portConstraint=eastwest;" vertex="1" parent="FhDucrxAOXkQIxxJNO1--1">
          <mxGeometry y="26" width="140" height="26" as="geometry" />
        </mxCell>
        <mxCell id="FhDucrxAOXkQIxxJNO1--3" value="Rank" style="text;strokeColor=none;fillColor=none;align=left;verticalAlign=top;spacingLeft=4;spacingRight=4;overflow=hidden;rotatable=0;points=[[0,0.5],[1,0.5]];portConstraint=eastwest;" vertex="1" parent="FhDucrxAOXkQIxxJNO1--1">
          <mxGeometry y="52" width="140" height="26" as="geometry" />
        </mxCell>
        <mxCell id="FhDucrxAOXkQIxxJNO1--9" style="edgeStyle=orthogonalEdgeStyle;rounded=0;orthogonalLoop=1;jettySize=auto;html=1;" edge="1" parent="1" source="FhDucrxAOXkQIxxJNO1--5" target="FhDucrxAOXkQIxxJNO1--1">
          <mxGeometry relative="1" as="geometry">
            <Array as="points">
              <mxPoint x="470" y="670" />
              <mxPoint x="660" y="670" />
            </Array>
          </mxGeometry>
        </mxCell>
        <mxCell id="FhDucrxAOXkQIxxJNO1--5" value="CardPile" style="swimlane;fontStyle=0;childLayout=stackLayout;horizontal=1;startSize=26;fillColor=none;horizontalStack=0;resizeParent=1;resizeParentMax=0;resizeLast=0;collapsible=1;marginBottom=0;" vertex="1" parent="1">
          <mxGeometry x="400" y="610" width="140" height="52" as="geometry" />
        </mxCell>
        <mxCell id="FhDucrxAOXkQIxxJNO1--10" value="1..1" style="text;html=1;strokeColor=none;fillColor=none;align=center;verticalAlign=middle;whiteSpace=wrap;rounded=0;" vertex="1" parent="1">
          <mxGeometry x="470" y="670" width="40" height="20" as="geometry" />
        </mxCell>
        <mxCell id="FhDucrxAOXkQIxxJNO1--11" value="1..*" style="text;html=1;strokeColor=none;fillColor=none;align=center;verticalAlign=middle;whiteSpace=wrap;rounded=0;" vertex="1" parent="1">
          <mxGeometry x="660" y="690" width="40" height="20" as="geometry" />
        </mxCell>
        <mxCell id="FhDucrxAOXkQIxxJNO1--16" style="edgeStyle=orthogonalEdgeStyle;rounded=0;orthogonalLoop=1;jettySize=auto;html=1;entryX=0;entryY=0.5;entryDx=0;entryDy=0;" edge="1" parent="1" source="FhDucrxAOXkQIxxJNO1--12" target="FhDucrxAOXkQIxxJNO1--5">
          <mxGeometry relative="1" as="geometry" />
        </mxCell>
        <mxCell id="FhDucrxAOXkQIxxJNO1--12" value="Deck" style="swimlane;fontStyle=0;childLayout=stackLayout;horizontal=1;startSize=26;fillColor=none;horizontalStack=0;resizeParent=1;resizeParentMax=0;resizeLast=0;collapsible=1;marginBottom=0;" vertex="1" parent="1">
          <mxGeometry x="250" y="470" width="140" height="52" as="geometry" />
        </mxCell>
        <mxCell id="FhDucrxAOXkQIxxJNO1--21" style="edgeStyle=orthogonalEdgeStyle;rounded=0;orthogonalLoop=1;jettySize=auto;html=1;" edge="1" parent="1" source="FhDucrxAOXkQIxxJNO1--17" target="FhDucrxAOXkQIxxJNO1--12">
          <mxGeometry relative="1" as="geometry" />
        </mxCell>
        <mxCell id="FhDucrxAOXkQIxxJNO1--17" value="MegaDeck" style="swimlane;fontStyle=0;childLayout=stackLayout;horizontal=1;startSize=26;fillColor=none;horizontalStack=0;resizeParent=1;resizeParentMax=0;resizeLast=0;collapsible=1;marginBottom=0;" vertex="1" parent="1">
          <mxGeometry x="150" y="270" width="140" height="52" as="geometry" />
        </mxCell>
        <mxCell id="FhDucrxAOXkQIxxJNO1--23" value="1..1" style="text;html=1;strokeColor=none;fillColor=none;align=center;verticalAlign=middle;whiteSpace=wrap;rounded=0;" vertex="1" parent="1">
          <mxGeometry x="180" y="322" width="40" height="20" as="geometry" />
        </mxCell>
        <mxCell id="FhDucrxAOXkQIxxJNO1--24" value="1..1" style="text;html=1;strokeColor=none;fillColor=none;align=center;verticalAlign=middle;whiteSpace=wrap;rounded=0;" vertex="1" parent="1">
          <mxGeometry x="320" y="450" width="40" height="20" as="geometry" />
        </mxCell>
        <mxCell id="FhDucrxAOXkQIxxJNO1--29" style="edgeStyle=orthogonalEdgeStyle;rounded=0;orthogonalLoop=1;jettySize=auto;html=1;" edge="1" parent="1" source="FhDucrxAOXkQIxxJNO1--25" target="FhDucrxAOXkQIxxJNO1--5">
          <mxGeometry relative="1" as="geometry" />
        </mxCell>
        <mxCell id="FhDucrxAOXkQIxxJNO1--25" value="WarPile" style="swimlane;fontStyle=0;childLayout=stackLayout;horizontal=1;startSize=26;fillColor=none;horizontalStack=0;resizeParent=1;resizeParentMax=0;resizeLast=0;collapsible=1;marginBottom=0;" vertex="1" parent="1">
          <mxGeometry x="460" y="430" width="140" height="52" as="geometry" />
        </mxCell>
        <mxCell id="FhDucrxAOXkQIxxJNO1--28" value="CardPerson" style="text;strokeColor=none;fillColor=none;align=left;verticalAlign=top;spacingLeft=4;spacingRight=4;overflow=hidden;rotatable=0;points=[[0,0.5],[1,0.5]];portConstraint=eastwest;" vertex="1" parent="FhDucrxAOXkQIxxJNO1--25">
          <mxGeometry y="26" width="140" height="26" as="geometry" />
        </mxCell>
        <mxCell id="FhDucrxAOXkQIxxJNO1--30" value="1..1" style="text;html=1;strokeColor=none;fillColor=none;align=center;verticalAlign=middle;whiteSpace=wrap;rounded=0;" vertex="1" parent="1">
          <mxGeometry x="530" y="482" width="40" height="20" as="geometry" />
        </mxCell>
        <mxCell id="FhDucrxAOXkQIxxJNO1--31" value="1..1" style="text;html=1;strokeColor=none;fillColor=none;align=center;verticalAlign=middle;whiteSpace=wrap;rounded=0;" vertex="1" parent="1">
          <mxGeometry x="470" y="590" width="40" height="20" as="geometry" />
        </mxCell>
        <mxCell id="FhDucrxAOXkQIxxJNO1--36" style="edgeStyle=orthogonalEdgeStyle;rounded=0;orthogonalLoop=1;jettySize=auto;html=1;entryX=0.5;entryY=0;entryDx=0;entryDy=0;" edge="1" parent="1" source="FhDucrxAOXkQIxxJNO1--32" target="FhDucrxAOXkQIxxJNO1--5">
          <mxGeometry relative="1" as="geometry">
            <Array as="points">
              <mxPoint x="750" y="610" />
            </Array>
          </mxGeometry>
        </mxCell>
        <mxCell id="FhDucrxAOXkQIxxJNO1--32" value="LostAndFound" style="swimlane;fontStyle=0;childLayout=stackLayout;horizontal=1;startSize=26;fillColor=none;horizontalStack=0;resizeParent=1;resizeParentMax=0;resizeLast=0;collapsible=1;marginBottom=0;" vertex="1" parent="1">
          <mxGeometry x="650" y="277" width="140" height="52" as="geometry" />
        </mxCell>
        <mxCell id="FhDucrxAOXkQIxxJNO1--37" value="1..1" style="text;html=1;strokeColor=none;fillColor=none;align=center;verticalAlign=middle;whiteSpace=wrap;rounded=0;" vertex="1" parent="1">
          <mxGeometry x="750" y="329" width="40" height="20" as="geometry" />
        </mxCell>
        <mxCell id="FhDucrxAOXkQIxxJNO1--38" value="1..1" style="text;html=1;strokeColor=none;fillColor=none;align=center;verticalAlign=middle;whiteSpace=wrap;rounded=0;" vertex="1" parent="1">
          <mxGeometry x="540" y="590" width="40" height="20" as="geometry" />
        </mxCell>
      </root>
    </mxGraphModel>
  </diagram>
</mxfile>
